<mxfile host="app.diagrams.net" agent="Mozilla/5.0 (Windows NT 10.0; Win64; x64) AppleWebKit/537.36 (KHTML, like Gecko) Chrome/136.0.0.0 Safari/537.36" version="27.0.5">
  <diagram id="C5RBs43oDa-KdzZeNtuy" name="Page-1">
    <mxGraphModel grid="1" page="1" gridSize="10" guides="1" tooltips="1" connect="1" arrows="1" fold="1" pageScale="1" pageWidth="827" pageHeight="1169" math="0" shadow="0">
      <root>
        <mxCell id="WIyWlLk6GJQsqaUBKTNV-0" />
        <mxCell id="WIyWlLk6GJQsqaUBKTNV-1" parent="WIyWlLk6GJQsqaUBKTNV-0" />
        <mxCell id="oDXWqhOwZRP9UP1Z9LGE-0" value="&lt;div&gt;&lt;font face=&quot;monospace&quot;&gt;dhcpv6_message_t:&lt;/font&gt;&lt;/div&gt;&lt;div&gt;&lt;font face=&quot;monospace&quot;&gt;uint8_t: Message type&lt;/font&gt;&lt;/div&gt;&lt;code data-end=&quot;1331&quot; data-start=&quot;1321&quot;&gt;uint32_t:&amp;nbsp;&lt;/code&gt;Transaction ID&lt;div&gt;option_t[]: option list&lt;/div&gt;" style="whiteSpace=wrap;html=1;aspect=fixed;" vertex="1" parent="WIyWlLk6GJQsqaUBKTNV-1">
          <mxGeometry x="330" y="9" width="270" height="270" as="geometry" />
        </mxCell>
        <mxCell id="oDXWqhOwZRP9UP1Z9LGE-1" value="" style="endArrow=classic;html=1;rounded=0;" edge="1" parent="WIyWlLk6GJQsqaUBKTNV-1">
          <mxGeometry width="50" height="50" relative="1" as="geometry">
            <mxPoint x="330" y="260" as="sourcePoint" />
            <mxPoint x="180" y="390" as="targetPoint" />
          </mxGeometry>
        </mxCell>
        <mxCell id="oDXWqhOwZRP9UP1Z9LGE-2" value="option_t:&lt;div&gt;uint16_t: option code&lt;/div&gt;&lt;div&gt;option_data_t: option data&lt;/div&gt;" style="whiteSpace=wrap;html=1;aspect=fixed;" vertex="1" parent="WIyWlLk6GJQsqaUBKTNV-1">
          <mxGeometry x="21" y="391" width="190" height="190" as="geometry" />
        </mxCell>
        <mxCell id="oDXWqhOwZRP9UP1Z9LGE-3" value="the option will be a structure will a union defined inside along with the option code" style="text;html=1;align=center;verticalAlign=middle;whiteSpace=wrap;rounded=0;" vertex="1" parent="WIyWlLk6GJQsqaUBKTNV-1">
          <mxGeometry x="31" y="599" width="170" height="30" as="geometry" />
        </mxCell>
      </root>
    </mxGraphModel>
  </diagram>
</mxfile>
